<?xml version="1.0" encoding="UTF-8" standalone="no"?>
<svg
   xmlns:dc="http://purl.org/dc/elements/1.1/"
   xmlns:cc="http://creativecommons.org/ns#"
   xmlns:rdf="http://www.w3.org/1999/02/22-rdf-syntax-ns#"
   xmlns:svg="http://www.w3.org/2000/svg"
   xmlns="http://www.w3.org/2000/svg"
   id="svg8"
   version="1.1"
   viewBox="0 0 25.706917 25.706917"
   height="25.706917mm"
   width="25.706917mm">
  <defs
     id="defs2" />
  <metadata
     id="metadata5">
    <rdf:RDF>
      <cc:Work
         rdf:about="">
        <dc:format>image/svg+xml</dc:format>
        <dc:type
           rdf:resource="http://purl.org/dc/dcmitype/StillImage" />
        <dc:title></dc:title>
      </cc:Work>
    </rdf:RDF>
  </metadata>
  <g
     transform="translate(-37.417375,-152.98881)"
     id="layer1">
    <g
       style="fill:#ffffff"
       transform="matrix(0.26458333,0,0,0.26458333,37.417375,152.98881)"
       id="g4752">
      <g
         style="fill:#ffffff"
         id="g4694">
	<g
   style="fill:#ffffff"
   id="g4692">
		<path
   style="fill:#ffffff"
   d="M 48.58,0 C 21.793,0 0,21.793 0,48.58 0,75.367 21.793,97.16 48.58,97.16 75.367,97.16 97.16,75.367 97.16,48.58 97.16,21.793 75.367,0 48.58,0 Z m 0,86.823 c -21.087,0 -38.244,-17.155 -38.244,-38.243 0,-21.088 17.157,-38.243 38.244,-38.243 21.087,0 38.244,17.155 38.244,38.243 0,21.088 -17.157,38.243 -38.244,38.243 z"
   id="path4688" />

		<path
   style="fill:#ffffff"
   d="M 73.898,47.08 H 52.066 V 20.83 c 0,-2.209 -1.791,-4 -4,-4 -2.209,0 -4,1.791 -4,4 v 30.25 c 0,2.209 1.791,4 4,4 h 25.832 c 2.209,0 4,-1.791 4,-4 0,-2.209 -1.791,-4 -4,-4 z"
   id="path4690" />

	</g>

</g>
      <g
         style="fill:#ffffff"
         id="g4696">
</g>
      <g
         style="fill:#ffffff"
         id="g4698">
</g>
      <g
         style="fill:#ffffff"
         id="g4700">
</g>
      <g
         style="fill:#ffffff"
         id="g4702">
</g>
      <g
         style="fill:#ffffff"
         id="g4704">
</g>
      <g
         style="fill:#ffffff"
         id="g4706">
</g>
      <g
         style="fill:#ffffff"
         id="g4708">
</g>
      <g
         style="fill:#ffffff"
         id="g4710">
</g>
      <g
         style="fill:#ffffff"
         id="g4712">
</g>
      <g
         style="fill:#ffffff"
         id="g4714">
</g>
      <g
         style="fill:#ffffff"
         id="g4716">
</g>
      <g
         style="fill:#ffffff"
         id="g4718">
</g>
      <g
         style="fill:#ffffff"
         id="g4720">
</g>
      <g
         style="fill:#ffffff"
         id="g4722">
</g>
      <g
         style="fill:#ffffff"
         id="g4724">
</g>
    </g>
  </g>
</svg>
