<?xml version="1.0" encoding="UTF-8" standalone="no"?>
<svg
   xmlns:dc="http://purl.org/dc/elements/1.1/"
   xmlns:cc="http://creativecommons.org/ns#"
   xmlns:rdf="http://www.w3.org/1999/02/22-rdf-syntax-ns#"
   xmlns:svg="http://www.w3.org/2000/svg"
   xmlns="http://www.w3.org/2000/svg"
   id="svg8"
   version="1.1"
   viewBox="0 0 129.64583 110.86941"
   height="110.86941mm"
   width="129.64583mm">
  <defs
     id="defs2" />
  <metadata
     id="metadata5">
    <rdf:RDF>
      <cc:Work
         rdf:about="">
        <dc:format>image/svg+xml</dc:format>
        <dc:type
           rdf:resource="http://purl.org/dc/dcmitype/StillImage" />
        <dc:title></dc:title>
      </cc:Work>
    </rdf:RDF>
  </metadata>
  <g
     transform="translate(334.03773,-578.93409)"
     id="layer1">
    <g
       style="fill:#ffffff"
       transform="matrix(0.26458333,0,0,0.26458333,-334.03773,569.54588)"
       id="g4951">
      <g
         style="fill:#ffffff"
         id="g4887">
	<g
   style="fill:#ffffff"
   id="g4871">
		<path
   style="fill:#ffffff"
   d="m 393.872,454.517 c -2.304,0 -4.583,-0.804 -6.412,-2.354 L 288.145,367.969 H 68.115 C 30.556,367.968 0,337.242 0,299.474 V 103.977 C 0,66.209 30.556,35.483 68.115,35.483 h 353.77 c 37.559,0 68.115,30.727 68.115,68.494 v 195.497 c 0,37.768 -30.556,68.494 -68.115,68.494 h -18.071 v 76.549 c 0,3.891 -2.243,7.428 -5.752,9.067 -1.339,0.626 -2.769,0.933 -4.19,0.933 z M 68.115,55.483 c -26.592,0 -48.226,21.754 -48.226,48.494 v 195.497 c 0,26.739 21.634,48.494 48.226,48.494 h 223.662 c 2.346,0 4.616,0.834 6.411,2.354 l 85.737,72.685 v -65.039 c 0,-5.523 4.453,-10 9.945,-10 h 28.015 c 26.592,0 48.226,-21.755 48.226,-48.494 V 103.977 c 0,-26.74 -21.634,-48.494 -48.226,-48.494 H 68.115 Z"
   id="path4869" />

	</g>

	<g
   style="fill:#ffffff"
   id="g4885">
		<g
   style="fill:#ffffff"
   id="g4875">
			<path
   style="fill:#ffffff"
   d="M 405.168,147.469 H 84.832 c -5.492,0 -9.944,-4.478 -9.944,-10 0,-5.523 4.452,-10 9.944,-10 h 320.335 c 5.492,0 9.944,4.477 9.944,10 0,5.522 -4.451,10 -9.943,10 z"
   id="path4873" />

		</g>

		<g
   style="fill:#ffffff"
   id="g4879">
			<path
   style="fill:#ffffff"
   d="M 405.168,211.503 H 84.832 c -5.492,0 -9.944,-4.478 -9.944,-10 0,-5.523 4.452,-10 9.944,-10 h 320.335 c 5.492,0 9.944,4.477 9.944,10 0,5.522 -4.451,10 -9.943,10 z"
   id="path4877" />

		</g>

		<g
   style="fill:#ffffff"
   id="g4883">
			<path
   style="fill:#ffffff"
   d="M 405.168,275.538 H 84.832 c -5.492,0 -9.944,-4.478 -9.944,-10 0,-5.523 4.452,-10 9.944,-10 h 320.335 c 5.492,0 9.944,4.476 9.944,10 0,5.522 -4.451,10 -9.943,10 z"
   id="path4881" />

		</g>

	</g>

</g>
      <g
         style="fill:#ffffff"
         id="g4889">
</g>
      <g
         style="fill:#ffffff"
         id="g4891">
</g>
      <g
         style="fill:#ffffff"
         id="g4893">
</g>
      <g
         style="fill:#ffffff"
         id="g4895">
</g>
      <g
         style="fill:#ffffff"
         id="g4897">
</g>
      <g
         style="fill:#ffffff"
         id="g4899">
</g>
      <g
         style="fill:#ffffff"
         id="g4901">
</g>
      <g
         style="fill:#ffffff"
         id="g4903">
</g>
      <g
         style="fill:#ffffff"
         id="g4905">
</g>
      <g
         style="fill:#ffffff"
         id="g4907">
</g>
      <g
         style="fill:#ffffff"
         id="g4909">
</g>
      <g
         style="fill:#ffffff"
         id="g4911">
</g>
      <g
         style="fill:#ffffff"
         id="g4913">
</g>
      <g
         style="fill:#ffffff"
         id="g4915">
</g>
      <g
         style="fill:#ffffff"
         id="g4917">
</g>
    </g>
  </g>
</svg>
